<svg xmlns="http://www.w3.org/2000/svg" xmlns:xlink="http://www.w3.org/1999/xlink" width="1920" height="968" style="border: 1px solid black; overflow: hidden;"><defs/><g id="container"><g id="container_1" transform="matrix(1.1641,0.0000,0.0000,1.1641,-156.3333,445.33)"><g id="container_2"/><g id="container_3"/><g id="container_4"><g id="I11"><path d="M 1005 210L 1000 210" style="fill:none;stroke:#aaaaaa;stroke-width:0.3;stroke-linecap:round;stroke-miterlimit:10;stroke-dasharray:5,10;" id="shape"/><text id="text" transform="matrix(1.0000,0.0000,0.0000,1.0000,1005.0000,216.73)" fill="#000000" style="font-size:20px;font-family:Arial;">ce11</text><path d="M 1000 210L 875 210" style="fill:none;stroke:#000000;stroke-linecap:round;stroke-miterlimit:10;" id="shape_1"/></g><g id="I0"><path d="M 250 32.34375L 125 32.34375M 250 64.6875L 250 0" style="fill:none;stroke:#000000;stroke-linecap:round;stroke-miterlimit:10;" id="shape_2"/></g><g id="I7"><path d="M 750 172.5L 625 172.5M 750 195L 750 150" style="fill:none;stroke:#000000;stroke-linecap:round;stroke-miterlimit:10;" id="shape_3"/></g><g id="I12"><path d="M 875 105L 625 105M 875 120L 875 90" style="fill:none;stroke:#000000;stroke-linecap:round;stroke-miterlimit:10;" id="shape_4"/></g><g id="I9"><path d="M 875 195L 750 195M 875 210L 875 180" style="fill:none;stroke:#000000;stroke-linecap:round;stroke-miterlimit:10;" id="shape_5"/></g><g id="I3"><path d="M 1005 30L 1000 30" style="fill:none;stroke:#aaaaaa;stroke-width:0.3;stroke-linecap:round;stroke-miterlimit:10;stroke-dasharray:5,10;" id="shape_6"/><text id="text_1" transform="matrix(1.0000,0.0000,0.0000,1.0000,1005.0000,36.73)" fill="#000000" style="font-size:20px;font-family:Arial;">melInc2</text><path d="M 1000 30L 375 30" style="fill:none;stroke:#000000;stroke-linecap:round;stroke-miterlimit:10;" id="shape_7"/></g><g id="I4"><path d="M 500 99.375L 375 99.375M 500 138.75L 500 60" style="fill:none;stroke:#000000;stroke-linecap:round;stroke-miterlimit:10;" id="shape_8"/></g><g id="I14"><path d="M 1005 120L 1000 120" style="fill:none;stroke:#aaaaaa;stroke-width:0.3;stroke-linecap:round;stroke-miterlimit:10;stroke-dasharray:5,10;" id="shape_9"/><text id="text_2" transform="matrix(1.0000,0.0000,0.0000,1.0000,1005.0000,126.73)" fill="#000000" style="font-size:20px;font-family:Arial;">cb4</text><path d="M 1000 120L 875 120" style="fill:none;stroke:#000000;stroke-linecap:round;stroke-miterlimit:10;" id="shape_10"/></g><g id="I8"><path d="M 1005 150L 1000 150" style="fill:none;stroke:#aaaaaa;stroke-width:0.3;stroke-linecap:round;stroke-miterlimit:10;stroke-dasharray:5,10;" id="shape_11"/><text id="text_3" transform="matrix(1.0000,0.0000,0.0000,1.0000,1005.0000,156.73)" fill="#000000" style="font-size:20px;font-family:Arial;">caePb3</text><path d="M 1000 150L 750 150" style="fill:none;stroke:#000000;stroke-linecap:round;stroke-miterlimit:10;" id="shape_12"/></g><g id="I5"><path d="M 1005 60L 1000 60" style="fill:none;stroke:#aaaaaa;stroke-width:0.3;stroke-linecap:round;stroke-miterlimit:10;stroke-dasharray:5,10;" id="shape_13"/><text id="text_4" transform="matrix(1.0000,0.0000,0.0000,1.0000,1005.0000,66.73)" fill="#000000" style="font-size:20px;font-family:Arial;">haeCon2</text><path d="M 1000 60L 500 60" style="fill:none;stroke:#000000;stroke-linecap:round;stroke-miterlimit:10;" id="shape_14"/></g><g id="I2"><path d="M 375 64.6875L 250 64.6875M 375 99.375L 375 30" style="fill:none;stroke:#000000;stroke-linecap:round;stroke-miterlimit:10;" id="shape_15"/></g><g id="I13"><path d="M 1005 90L 1000 90" style="fill:none;stroke:#aaaaaa;stroke-width:0.3;stroke-linecap:round;stroke-miterlimit:10;stroke-dasharray:5,10;" id="shape_16"/><text id="text_5" transform="matrix(1.0000,0.0000,0.0000,1.0000,1005.0000,96.73)" fill="#000000" style="font-size:20px;font-family:Arial;">caeRem4</text><path d="M 1000 90L 875 90" style="fill:none;stroke:#000000;stroke-linecap:round;stroke-miterlimit:10;" id="shape_17"/></g><g id="I6"><path d="M 625 138.75L 500 138.75M 625 172.5L 625 105" style="fill:none;stroke:#000000;stroke-linecap:round;stroke-miterlimit:10;" id="shape_18"/></g><g id="I1"><path d="M 1005 0L 1000 0" style="fill:none;stroke:#aaaaaa;stroke-width:0.3;stroke-linecap:round;stroke-miterlimit:10;stroke-dasharray:5,10;" id="shape_19"/><text id="text_6" transform="matrix(1.0000,0.0000,0.0000,1.0000,1005.0000,6.73)" fill="#000000" style="font-size:20px;font-family:Arial;">priPac3</text><path d="M 1000 0L 250 0" style="fill:none;stroke:#000000;stroke-linecap:round;stroke-miterlimit:10;" id="shape_20"/></g><g id="I10"><path d="M 1005 180L 1000 180" style="fill:none;stroke:#aaaaaa;stroke-width:0.3;stroke-linecap:round;stroke-miterlimit:10;stroke-dasharray:5,10;" id="shape_21"/><text id="text_7" transform="matrix(1.0000,0.0000,0.0000,1.0000,1005.0000,186.73)" fill="#000000" style="font-size:20px;font-family:Arial;">caeJap4</text><path d="M 1000 180L 875 180" style="fill:none;stroke:#000000;stroke-linecap:round;stroke-miterlimit:10;" id="shape_22"/></g></g><g id="container_5"/><g id="container_6"><text id="text_8" transform="matrix(1.0000,0.0000,0.0000,1.0000,750.0000,191.11)" fill="#000000" text-anchor="middle" style="font-size:14px;font-family:Arial;">InnerNode3</text><text id="text_9" transform="matrix(1.0000,0.0000,0.0000,1.0000,625.0000,168.61)" fill="#000000" text-anchor="middle" style="font-size:14px;font-family:Arial;">InnerNode2</text><text id="text_10" transform="matrix(1.0000,0.0000,0.0000,1.0000,625.0000,101.11)" fill="#000000" text-anchor="middle" style="font-size:14px;font-family:Arial;">InnerNode1</text><text id="text_11" transform="matrix(1.0000,0.0000,0.0000,1.0000,500.0000,134.86)" fill="#000000" text-anchor="middle" style="font-size:14px;font-family:Arial;">Caenorhabditis</text><text id="text_12" transform="matrix(1.0000,0.0000,0.0000,1.0000,375.0000,95.49)" fill="#000000" text-anchor="middle" style="font-size:14px;font-family:Arial;">Rhabditida</text><text id="text_13" transform="matrix(1.0000,0.0000,0.0000,1.0000,250.0000,60.80)" fill="#000000" text-anchor="middle" style="font-size:14px;font-family:Arial;">InnerNode0</text><text id="text_14" transform="matrix(1.0000,0.0000,0.0000,1.0000,125.0000,28.46)" fill="#000000" text-anchor="middle" style="font-size:14px;font-family:Arial;">Chromadorea</text><text id="text_15" transform="matrix(1.0000,0.0000,0.0000,1.0000,1127.0000,8.71)" fill="#000000" style="font-size:27px;font-family:Arial;">6(0)</text><text id="text_16" transform="matrix(1.0000,0.0000,0.0000,1.0000,1127.0000,38.71)" fill="#000000" style="font-size:27px;font-family:Arial;">0(0)</text><text id="text_17" transform="matrix(1.0000,0.0000,0.0000,1.0000,1127.0000,68.71)" fill="#000000" style="font-size:27px;font-family:Arial;">1(0)</text><text id="text_18" transform="matrix(1.0000,0.0000,0.0000,1.0000,1127.0000,158.71)" fill="#000000" style="font-size:27px;font-family:Arial;">15(0)</text><text id="text_19" transform="matrix(1.0000,0.0000,0.0000,1.0000,1127.0000,188.71)" fill="#000000" style="font-size:27px;font-family:Arial;">1(0)</text><text id="text_20" transform="matrix(1.0000,0.0000,0.0000,1.0000,1127.0000,218.71)" fill="#000000" style="font-size:27px;font-family:Arial;">4(0)</text><text id="text_21" transform="matrix(1.0000,0.0000,0.0000,1.0000,1127.0000,98.71)" fill="#000000" style="font-size:27px;font-family:Arial;">18(0)</text><text id="text_22" transform="matrix(1.0000,0.0000,0.0000,1.0000,1127.0000,128.71)" fill="#000000" style="font-size:27px;font-family:Arial;">6(0)</text><text id="text_23" transform="matrix(1.0000,0.0000,0.0000,1.0000,1206.0000,8.71)" fill="#078407" style="font-size:27px;font-family:Arial;">5(0)</text><text id="text_24" transform="matrix(1.0000,0.0000,0.0000,1.0000,1206.0000,38.71)" fill="#078407" style="font-size:27px;font-family:Arial;">0(0)</text><text id="text_25" transform="matrix(1.0000,0.0000,0.0000,1.0000,1206.0000,68.71)" fill="#078407" style="font-size:27px;font-family:Arial;">0(0)</text><text id="text_26" transform="matrix(1.0000,0.0000,0.0000,1.0000,1206.0000,158.71)" fill="#078407" style="font-size:27px;font-family:Arial;">10(0)</text><text id="text_27" transform="matrix(1.0000,0.0000,0.0000,1.0000,1206.0000,188.71)" fill="#078407" style="font-size:27px;font-family:Arial;">0(0)</text><text id="text_28" transform="matrix(1.0000,0.0000,0.0000,1.0000,1206.0000,218.71)" fill="#078407" style="font-size:27px;font-family:Arial;">3(0)</text><text id="text_29" transform="matrix(1.0000,0.0000,0.0000,1.0000,825.0000,191.11)" fill="#078407" text-anchor="middle" style="font-size:14px;font-family:Arial;">0(0)</text><text id="text_30" transform="matrix(1.0000,0.0000,0.0000,1.0000,700.0000,168.61)" fill="#078407" text-anchor="middle" style="font-size:14px;font-family:Arial;">0(0)</text><text id="text_31" transform="matrix(1.0000,0.0000,0.0000,1.0000,1206.0000,98.71)" fill="#078407" style="font-size:27px;font-family:Arial;">4(0)</text><text id="text_32" transform="matrix(1.0000,0.0000,0.0000,1.0000,1206.0000,128.71)" fill="#078407" style="font-size:27px;font-family:Arial;">6(0)</text><text id="text_33" transform="matrix(1.0000,0.0000,0.0000,1.0000,775.0000,101.11)" fill="#078407" text-anchor="middle" style="font-size:14px;font-family:Arial;">0(0)</text><text id="text_34" transform="matrix(1.0000,0.0000,0.0000,1.0000,575.0000,134.86)" fill="#078407" text-anchor="middle" style="font-size:14px;font-family:Arial;">0(0)</text><text id="text_35" transform="matrix(1.0000,0.0000,0.0000,1.0000,450.0000,95.49)" fill="#078407" text-anchor="middle" style="font-size:14px;font-family:Arial;">0(0)</text><text id="text_36" transform="matrix(1.0000,0.0000,0.0000,1.0000,325.0000,60.80)" fill="#078407" text-anchor="middle" style="font-size:14px;font-family:Arial;">0(0)</text><text id="text_37" transform="matrix(1.0000,0.0000,0.0000,1.0000,200.0000,28.46)" fill="#078407" text-anchor="middle" style="font-size:14px;font-family:Arial;">0(0)</text><text id="text_38" transform="matrix(1.0000,0.0000,0.0000,1.0000,1285.0000,8.71)" fill="#ffa500" style="font-size:27px;font-family:Arial;">0(0)</text><text id="text_39" transform="matrix(1.0000,0.0000,0.0000,1.0000,1285.0000,38.71)" fill="#ffa500" style="font-size:27px;font-family:Arial;">0(0)</text><text id="text_40" transform="matrix(1.0000,0.0000,0.0000,1.0000,1285.0000,68.71)" fill="#ffa500" style="font-size:27px;font-family:Arial;">0(0)</text><text id="text_41" transform="matrix(1.0000,0.0000,0.0000,1.0000,1285.0000,158.71)" fill="#ffa500" style="font-size:27px;font-family:Arial;">2(0)</text><text id="text_42" transform="matrix(1.0000,0.0000,0.0000,1.0000,1285.0000,188.71)" fill="#ffa500" style="font-size:27px;font-family:Arial;">0(0)</text><text id="text_43" transform="matrix(1.0000,0.0000,0.0000,1.0000,1285.0000,218.71)" fill="#ffa500" style="font-size:27px;font-family:Arial;">1(0)</text><text id="text_44" transform="matrix(1.0000,0.0000,0.0000,1.0000,1285.0000,98.71)" fill="#ffa500" style="font-size:27px;font-family:Arial;">3(0)</text><text id="text_45" transform="matrix(1.0000,0.0000,0.0000,1.0000,1285.0000,128.71)" fill="#ffa500" style="font-size:27px;font-family:Arial;">0(0)</text><text id="text_46" transform="matrix(1.0000,0.0000,0.0000,1.0000,1349.0000,8.71)" fill="#ff0000" style="font-size:27px;font-family:Arial;">0(0)</text><text id="text_47" transform="matrix(1.0000,0.0000,0.0000,1.0000,1349.0000,38.71)" fill="#ff0000" style="font-size:27px;font-family:Arial;">0(0)</text><text id="text_48" transform="matrix(1.0000,0.0000,0.0000,1.0000,1349.0000,68.71)" fill="#ff0000" style="font-size:27px;font-family:Arial;">0(0)</text><text id="text_49" transform="matrix(1.0000,0.0000,0.0000,1.0000,1349.0000,158.71)" fill="#ff0000" style="font-size:27px;font-family:Arial;">0(0)</text><text id="text_50" transform="matrix(1.0000,0.0000,0.0000,1.0000,1349.0000,188.71)" fill="#ff0000" style="font-size:27px;font-family:Arial;">0(0)</text><text id="text_51" transform="matrix(1.0000,0.0000,0.0000,1.0000,1349.0000,218.71)" fill="#ff0000" style="font-size:27px;font-family:Arial;">0(0)</text><text id="text_52" transform="matrix(1.0000,0.0000,0.0000,1.0000,850.0000,191.11)" fill="#ff0000" text-anchor="middle" style="font-size:14px;font-family:Arial;">0(0)</text><text id="text_53" transform="matrix(1.0000,0.0000,0.0000,1.0000,725.0000,168.61)" fill="#ff0000" text-anchor="middle" style="font-size:14px;font-family:Arial;">0(0)</text><text id="text_54" transform="matrix(1.0000,0.0000,0.0000,1.0000,1349.0000,98.71)" fill="#ff0000" style="font-size:27px;font-family:Arial;">0(0)</text><text id="text_55" transform="matrix(1.0000,0.0000,0.0000,1.0000,1349.0000,128.71)" fill="#ff0000" style="font-size:27px;font-family:Arial;">0(0)</text><text id="text_56" transform="matrix(1.0000,0.0000,0.0000,1.0000,825.0000,101.11)" fill="#ff0000" text-anchor="middle" style="font-size:14px;font-family:Arial;">0(0)</text><text id="text_57" transform="matrix(1.0000,0.0000,0.0000,1.0000,600.0000,134.86)" fill="#ff0000" text-anchor="middle" style="font-size:14px;font-family:Arial;">0(0)</text><text id="text_58" transform="matrix(1.0000,0.0000,0.0000,1.0000,475.0000,95.49)" fill="#ff0000" text-anchor="middle" style="font-size:14px;font-family:Arial;">0(0)</text><text id="text_59" transform="matrix(1.0000,0.0000,0.0000,1.0000,350.0000,60.80)" fill="#ff0000" text-anchor="middle" style="font-size:14px;font-family:Arial;">0(0)</text><text id="text_60" transform="matrix(1.0000,0.0000,0.0000,1.0000,225.0000,28.46)" fill="#ff0000" text-anchor="middle" style="font-size:14px;font-family:Arial;">0(0)</text><text id="text_61" transform="matrix(1.0000,0.0000,0.0000,1.0000,1413.0000,8.71)" fill="#0000ff" style="font-size:27px;font-family:Arial;">0</text><text id="text_62" transform="matrix(1.0000,0.0000,0.0000,1.0000,1413.0000,38.71)" fill="#0000ff" style="font-size:27px;font-family:Arial;">0</text><text id="text_63" transform="matrix(1.0000,0.0000,0.0000,1.0000,1413.0000,68.71)" fill="#0000ff" style="font-size:27px;font-family:Arial;">0</text><text id="text_64" transform="matrix(1.0000,0.0000,0.0000,1.0000,1413.0000,158.71)" fill="#0000ff" style="font-size:27px;font-family:Arial;">0</text><text id="text_65" transform="matrix(1.0000,0.0000,0.0000,1.0000,1413.0000,188.71)" fill="#0000ff" style="font-size:27px;font-family:Arial;">0</text><text id="text_66" transform="matrix(1.0000,0.0000,0.0000,1.0000,1413.0000,218.71)" fill="#0000ff" style="font-size:27px;font-family:Arial;">0</text><text id="text_67" transform="matrix(1.0000,0.0000,0.0000,1.0000,1413.0000,98.71)" fill="#0000ff" style="font-size:27px;font-family:Arial;">0</text><text id="text_68" transform="matrix(1.0000,0.0000,0.0000,1.0000,1413.0000,128.71)" fill="#0000ff" style="font-size:27px;font-family:Arial;">0</text><text id="text_69" transform="matrix(1.0000,0.0000,0.0000,1.0000,1444.0000,8.71)" fill="#551a8b" style="font-size:27px;font-family:Arial;">1(0)</text><text id="text_70" transform="matrix(1.0000,0.0000,0.0000,1.0000,1444.0000,38.71)" fill="#551a8b" style="font-size:27px;font-family:Arial;">0(0)</text><text id="text_71" transform="matrix(1.0000,0.0000,0.0000,1.0000,1444.0000,68.71)" fill="#551a8b" style="font-size:27px;font-family:Arial;">1(0)</text><text id="text_72" transform="matrix(1.0000,0.0000,0.0000,1.0000,1444.0000,158.71)" fill="#551a8b" style="font-size:27px;font-family:Arial;">3(0)</text><text id="text_73" transform="matrix(1.0000,0.0000,0.0000,1.0000,1444.0000,188.71)" fill="#551a8b" style="font-size:27px;font-family:Arial;">1(0)</text><text id="text_74" transform="matrix(1.0000,0.0000,0.0000,1.0000,1444.0000,218.71)" fill="#551a8b" style="font-size:27px;font-family:Arial;">0(0)</text><text id="text_75" transform="matrix(1.0000,0.0000,0.0000,1.0000,1444.0000,98.71)" fill="#551a8b" style="font-size:27px;font-family:Arial;">11(0)</text><text id="text_76" transform="matrix(1.0000,0.0000,0.0000,1.0000,1444.0000,128.71)" fill="#551a8b" style="font-size:27px;font-family:Arial;">0(0)</text><text id="text_77" transform="matrix(1.0000,0.0000,0.0000,1.0000,1523.0000,8.71)" fill="#A9A9A9" style="font-size:27px;font-family:Arial;">0(0)</text><text id="text_78" transform="matrix(1.0000,0.0000,0.0000,1.0000,1523.0000,38.71)" fill="#A9A9A9" style="font-size:27px;font-family:Arial;">0(0)</text><text id="text_79" transform="matrix(1.0000,0.0000,0.0000,1.0000,1523.0000,68.71)" fill="#A9A9A9" style="font-size:27px;font-family:Arial;">0(0)</text><text id="text_80" transform="matrix(1.0000,0.0000,0.0000,1.0000,1523.0000,158.71)" fill="#A9A9A9" style="font-size:27px;font-family:Arial;">0(0)</text><text id="text_81" transform="matrix(1.0000,0.0000,0.0000,1.0000,1523.0000,188.71)" fill="#A9A9A9" style="font-size:27px;font-family:Arial;">0(0)</text><text id="text_82" transform="matrix(1.0000,0.0000,0.0000,1.0000,1523.0000,218.71)" fill="#A9A9A9" style="font-size:27px;font-family:Arial;">0(0)</text><text id="text_83" transform="matrix(1.0000,0.0000,0.0000,1.0000,1523.0000,98.71)" fill="#A9A9A9" style="font-size:27px;font-family:Arial;">0(0)</text><text id="text_84" transform="matrix(1.0000,0.0000,0.0000,1.0000,1523.0000,128.71)" fill="#A9A9A9" style="font-size:27px;font-family:Arial;">0(0)</text></g><g id="container_7"/><g id="container_8"/><g id="container_9"/></g><g id="container_10" transform="matrix(1.0000,0.0000,0.0000,1.0000,100.0000,100.00)"><rect x="-5" y="-12" width="130" height="240" style="fill:#ffffff;fill-opacity:0.8;stroke:#eee;stroke-width:0.5;stroke-linecap:round;stroke-miterlimit:10;" id="shape_24"/><text id="text_85" transform="matrix(1.0000,0.0000,0.0000,1.0000,0.0000,5.15)" fill="#000" style="font-weight:bold;font-size:15px;font-family:Arial;">Element Counts</text><rect x="-10" y="-10" width="20" height="20" style="fill:#000000;stroke:#000;stroke-width:0.5;stroke-linecap:round;stroke-miterlimit:10;" id="shape_25" transform="matrix(1.0000,0.0000,0.0000,1.0000,10.0000,30.00)"/><text id="text_86" transform="matrix(1.0000,0.0000,0.0000,1.0000,30.0000,35.15)" fill="#000" style="font-size:15px;font-family:Arial;">Total</text><rect x="-10" y="-10" width="20" height="20" style="fill:#078407;stroke:#000;stroke-width:0.5;stroke-linecap:round;stroke-miterlimit:10;" id="shape_26" transform="matrix(1.0000,0.0000,0.0000,1.0000,10.0000,60.00)"/><text id="text_87" transform="matrix(1.0000,0.0000,0.0000,1.0000,30.0000,65.15)" fill="#000" style="font-size:15px;font-family:Arial;">Insertions</text><rect x="-10" y="-10" width="20" height="20" style="fill:#ffa500;stroke:#000;stroke-width:0.5;stroke-linecap:round;stroke-miterlimit:10;" id="shape_27" transform="matrix(1.0000,0.0000,0.0000,1.0000,10.0000,90.00)"/><text id="text_88" transform="matrix(1.0000,0.0000,0.0000,1.0000,30.0000,95.15)" fill="#000" style="font-size:15px;font-family:Arial;">Singletons</text><rect x="-10" y="-10" width="20" height="20" style="fill:#ff0000;stroke:#000;stroke-width:0.5;stroke-linecap:round;stroke-miterlimit:10;" id="shape_28" transform="matrix(1.0000,0.0000,0.0000,1.0000,10.0000,120.00)"/><text id="text_89" transform="matrix(1.0000,0.0000,0.0000,1.0000,30.0000,125.15)" fill="#000" style="font-size:15px;font-family:Arial;">Deletions</text><rect x="-10" y="-10" width="20" height="20" style="fill:#0000ff;stroke:#000;stroke-width:0.5;stroke-linecap:round;stroke-miterlimit:10;" id="shape_29" transform="matrix(1.0000,0.0000,0.0000,1.0000,10.0000,150.00)"/><text id="text_90" transform="matrix(1.0000,0.0000,0.0000,1.0000,30.0000,155.15)" fill="#000" style="font-size:15px;font-family:Arial;">Duplications</text><rect x="-10" y="-10" width="20" height="20" style="fill:#551a8b;stroke:#000;stroke-width:0.5;stroke-linecap:round;stroke-miterlimit:10;" id="shape_30" transform="matrix(1.0000,0.0000,0.0000,1.0000,10.0000,180.00)"/><text id="text_91" transform="matrix(1.0000,0.0000,0.0000,1.0000,30.0000,185.15)" fill="#000" style="font-size:15px;font-family:Arial;">Excluded</text><rect x="-10" y="-10" width="20" height="20" style="fill:#a9a9a9;stroke:#000;stroke-width:0.5;stroke-linecap:round;stroke-miterlimit:10;" id="shape_31" transform="matrix(1.0000,0.0000,0.0000,1.0000,10.0000,210.00)"/><text id="text_92" transform="matrix(1.0000,0.0000,0.0000,1.0000,30.0000,215.15)" fill="#000" style="font-size:15px;font-family:Arial;">Missing_Data</text><path d="M -2 13L 122 13" style="fill:none;stroke:#000;stroke-width:0.5;stroke-linecap:round;stroke-miterlimit:10;" id="shape_32"/></g></g></svg>